name ./resultDataOpenSim/trcMotMarkerGrf/sub09/grf-02-05.mot
datacolumns 19
datarows 15
range 0.46800000 0.52400000
endheader

                time	     ground_force_vx	     ground_force_vy	     ground_force_vz	     ground_force_px	     ground_force_py	     ground_force_pz	   l_ground_force_vx	   l_ground_force_vy	   l_ground_force_vz	   l_ground_force_px	   l_ground_force_py	   l_ground_force_pz	     ground_torque_x	     ground_torque_y	     ground_torque_z	   l_ground_torque_x	   l_ground_torque_y	   l_ground_torque_z	
          0.46800000	         19.89717055	        369.27824045	         -2.39096359	         -0.72015613	          0.00000000	          0.11838049	          0.00000000	          0.00000000	          0.00000000	          0.00000000	          0.00000000	          0.00000000	          0.00000000	          5.22844982	          0.00000000	          0.00000000	          0.00000000	          0.00000000	
          0.47200000	         23.88365192	        376.31244539	         -1.36898746	         -0.72003021	          0.00000000	          0.11846100	          0.00000000	          0.00000000	          0.00000000	          0.00000000	          0.00000000	          0.00000000	          0.00000000	          5.72109123	          0.00000000	          0.00000000	          0.00000000	          0.00000000	
          0.47600000	         27.64404059	        383.67003140	         -1.32712703	         -0.71958954	          0.00000000	          0.11865074	          0.00000000	          0.00000000	          0.00000000	          0.00000000	          0.00000000	          0.00000000	          0.00000000	          6.09307542	          0.00000000	          0.00000000	          0.00000000	          0.00000000	
          0.48000000	         31.15080618	        391.38031331	         -2.41651359	         -0.71885801	          0.00000000	          0.11893916	          0.00000000	          0.00000000	          0.00000000	          0.00000000	          0.00000000	          0.00000000	          0.00000000	          6.31380882	          0.00000000	          0.00000000	          0.00000000	          0.00000000	
          0.48400000	         34.41543214	        399.49152611	         -4.58629191	         -0.71787949	          0.00000000	          0.11931276	          0.00000000	          0.00000000	          0.00000000	          0.00000000	          0.00000000	          0.00000000	          0.00000000	          6.37989945	          0.00000000	          0.00000000	          0.00000000	          0.00000000	
          0.48800000	         37.47706131	        408.07870706	         -7.59454179	         -0.71670410	          0.00000000	          0.11975758	          0.00000000	          0.00000000	          0.00000000	          0.00000000	          0.00000000	          0.00000000	          0.00000000	          6.31437235	          0.00000000	          0.00000000	          0.00000000	          0.00000000	
          0.49200000	         40.38652130	        417.25176994	        -11.06066546	         -0.71537363	          0.00000000	          0.12025154	          0.00000000	          0.00000000	          0.00000000	          0.00000000	          0.00000000	          0.00000000	          0.00000000	          6.16024264	          0.00000000	          0.00000000	          0.00000000	          0.00000000	
          0.49600000	         43.19409136	        427.14311897	        -14.55174430	         -0.71393075	          0.00000000	          0.12075838	          0.00000000	          0.00000000	          0.00000000	          0.00000000	          0.00000000	          0.00000000	          0.00000000	          5.97013776	          0.00000000	          0.00000000	          0.00000000	          0.00000000	
          0.50000000	         45.94192062	        437.87607030	        -17.68160863	         -0.71242140	          0.00000000	          0.12123322	          0.00000000	          0.00000000	          0.00000000	          0.00000000	          0.00000000	          0.00000000	          0.00000000	          5.79435258	          0.00000000	          0.00000000	          0.00000000	          0.00000000	
          0.50400000	         48.65760401	        449.53021318	        -20.19606552	         -0.71090029	          0.00000000	          0.12162421	          0.00000000	          0.00000000	          0.00000000	          0.00000000	          0.00000000	          0.00000000	          0.00000000	          5.66990214	          0.00000000	          0.00000000	          0.00000000	          0.00000000	
          0.50800000	         51.34883541	        462.11113427	        -22.02070488	         -0.70940101	          0.00000000	          0.12191050	          0.00000000	          0.00000000	          0.00000000	          0.00000000	          0.00000000	          0.00000000	          0.00000000	          5.61294031	          0.00000000	          0.00000000	          0.00000000	          0.00000000	
          0.51200000	         54.00621674	        475.54059932	        -23.25965873	         -0.70793348	          0.00000000	          0.12209863	          0.00000000	          0.00000000	          0.00000000	          0.00000000	          0.00000000	          0.00000000	          0.00000000	          5.61631591	          0.00000000	          0.00000000	          0.00000000	          0.00000000	
          0.51600000	         56.61710956	        489.67870996	        -24.15093798	         -0.70648903	          0.00000000	          0.12220673	          0.00000000	          0.00000000	          0.00000000	          0.00000000	          0.00000000	          0.00000000	          0.00000000	          5.65298527	          0.00000000	          0.00000000	          0.00000000	          0.00000000	
          0.52000000	         59.17847950	        504.36058350	        -24.99019765	         -0.70505723	          0.00000000	          0.12224599	          0.00000000	          0.00000000	          0.00000000	          0.00000000	          0.00000000	          0.00000000	          0.00000000	          5.68464819	          0.00000000	          0.00000000	          0.00000000	          0.00000000	
          0.52400000	         61.70080921	        519.41996445	        -26.03648767	         -0.70364276	          0.00000000	          0.12221199	          0.00000000	          0.00000000	          0.00000000	          0.00000000	          0.00000000	          0.00000000	          0.00000000	          5.67357364	          0.00000000	          0.00000000	          0.00000000	          0.00000000	
